<?xml version="1.0" encoding="utf-8" ?>
<svg baseProfile="tiny" height="100%" version="1.2" width="100%" xmlns="http://www.w3.org/2000/svg" xmlns:ev="http://www.w3.org/2001/xml-events" xmlns:xlink="http://www.w3.org/1999/xlink"><defs /><line stroke="rgb(10%,10%,16%)" x1="0.0052" x2="0.0567" y1="-0.0386" y2="-0.4249" /><line stroke="rgb(10%,10%,16%)" x1="-0.0614" x2="-0.6755" y1="-0.0727" y2="-0.7993" /><line stroke="rgb(10%,10%,16%)" x1="-0.0385" x2="-0.4237" y1="0.0834" y2="0.9174" /><line stroke="rgb(10%,10%,16%)" x1="0.0441" x2="0.4852" y1="-0.0295" y2="-0.3244" /><line stroke="rgb(10%,10%,16%)" x1="-0.0836" x2="-0.9193" y1="-0.0442" y2="-0.4866" /><line stroke="rgb(10%,10%,16%)" x1="-0.0237" x2="-0.2604" y1="-0.082" y2="-0.9019" /><line stroke="rgb(10%,10%,16%)" x1="0.0921" x2="1.0129" y1="0.0315" y2="0.347" /><line stroke="rgb(10%,10%,16%)" x1="-0.0163" x2="-0.1791" y1="-0.0105" y2="-0.1159" /><line stroke="rgb(10%,10%,16%)" x1="0.0893" x2="0.9821" y1="-0.0" y2="-0.0005" /><line stroke="rgb(10%,10%,16%)" x1="-0.0017" x2="-0.0188" y1="0.0969" y2="1.0661" /><line stroke="rgb(10%,10%,16%)" x1="0.0661" x2="0.7268" y1="0.0646" y2="0.7107" /><line stroke="rgb(10%,10%,16%)" x1="-0.0564" x2="-0.6199" y1="-0.033" y2="-0.3629" /><line stroke="rgb(10%,10%,16%)" x1="0.084" x2="0.9235" y1="0.0328" y2="0.3608" /><line stroke="rgb(10%,10%,16%)" x1="-0.0334" x2="-0.3677" y1="0.094" y2="1.0339" /><line stroke="rgb(10%,10%,16%)" x1="-0.0167" x2="-0.1835" y1="-0.0588" y2="-0.6463" /><line stroke="rgb(10%,10%,16%)" x1="-0.004" x2="-0.0438" y1="0.0986" y2="1.0841" /><line stroke="rgb(10%,10%,16%)" x1="-0.0479" x2="-0.5269" y1="0.0322" y2="0.3542" /><line stroke="rgb(10%,10%,16%)" x1="0.0204" x2="0.2247" y1="0.0607" y2="0.6672" /><line stroke="rgb(10%,10%,16%)" x1="-0.0959" x2="-1.0549" y1="-0.0284" y2="-0.3119" /><line stroke="rgb(10%,10%,16%)" x1="-0.0718" x2="-0.7896" y1="0.0573" y2="0.6306" /><line stroke="rgb(10%,10%,16%)" x1="0.0883" x2="0.971" y1="-0.0317" y2="-0.3492" /><line stroke="rgb(10%,10%,16%)" x1="-0.0829" x2="-0.9124" y1="-0.0459" y2="-0.5054" /><line stroke="rgb(10%,10%,16%)" x1="-0.0958" x2="-1.0541" y1="-0.0065" y2="-0.072" /><line stroke="rgb(10%,10%,16%)" x1="0.0495" x2="0.5446" y1="0.0835" y2="0.9186" /><line stroke="rgb(10%,10%,16%)" x1="-0.0513" x2="-0.5647" y1="-0.058" y2="-0.6383" /><line stroke="rgb(10%,10%,16%)" x1="-0.0898" x2="-0.9876" y1="0.0349" y2="0.3839" /><line stroke="rgb(10%,10%,16%)" x1="0.0748" x2="0.8231" y1="0.0063" y2="0.069" /><line stroke="rgb(10%,10%,16%)" x1="0.0943" x2="1.0376" y1="-0.0062" y2="-0.0681" /><line stroke="rgb(10%,10%,16%)" x1="0.0243" x2="0.2675" y1="0.0894" y2="0.9839" /><line stroke="rgb(10%,10%,16%)" x1="0.077" x2="0.8474" y1="-0.0637" y2="-0.7012" /><line stroke="rgb(10%,10%,16%)" x1="-0.0664" x2="-0.7308" y1="0.0699" y2="0.7687" /><line stroke="rgb(10%,10%,16%)" x1="-0.0802" x2="-0.8827" y1="0.0148" y2="0.1629" /><line stroke="rgb(10%,10%,16%)" x1="0.0386" x2="0.4243" y1="-0.0373" y2="-0.4099" /><line stroke="rgb(10%,10%,16%)" x1="0.0149" x2="0.1644" y1="-0.0649" y2="-0.7139" /><line stroke="rgb(10%,10%,16%)" x1="0.0428" x2="0.471" y1="-0.0694" y2="-0.7639" /><line stroke="rgb(10%,10%,16%)" x1="-0.0234" x2="-0.2572" y1="0.0481" y2="0.5292" /><line stroke="rgb(10%,10%,16%)" x1="-0.037" x2="-0.4069" y1="0.0877" y2="0.9643" /><line stroke="rgb(10%,10%,16%)" x1="0.0186" x2="0.2048" y1="-0.0037" y2="-0.0408" /><line stroke="rgb(10%,10%,16%)" x1="-0.008" x2="-0.0883" y1="0.0808" y2="0.889" /><line stroke="rgb(10%,10%,16%)" x1="0.0178" x2="0.1963" y1="-0.0971" y2="-1.0685" /><line stroke="rgb(10%,10%,16%)" x1="0.0237" x2="0.2611" y1="0.0971" y2="1.0684" /><line stroke="rgb(10%,10%,16%)" x1="-0.0992" x2="-1.0907" y1="0.0128" y2="0.1403" /><line stroke="rgb(10%,10%,16%)" x1="-0.0276" x2="-0.3039" y1="-0.0187" y2="-0.2058" /><line stroke="rgb(10%,10%,16%)" x1="-0.0191" x2="-0.2105" y1="-0.056" y2="-0.6163" /><line stroke="rgb(10%,10%,16%)" x1="0.0241" x2="0.2653" y1="-0.0956" y2="-1.0517" /><line stroke="rgb(10%,10%,16%)" x1="-0.0455" x2="-0.5008" y1="-0.089" y2="-0.9791" /><line stroke="rgb(10%,10%,16%)" x1="-0.0597" x2="-0.6571" y1="0.0388" y2="0.4273" /><line stroke="rgb(10%,10%,16%)" x1="0.0604" x2="0.6641" y1="0.041" y2="0.4515" /><line stroke="rgb(10%,10%,16%)" x1="-0.0091" x2="-0.1006" y1="0.0079" y2="0.087" /><line stroke="rgb(10%,10%,16%)" x1="0.0598" x2="0.6583" y1="-0.0759" y2="-0.8351" /><line stroke="rgb(10%,10%,16%)" x1="-0.0018" x2="-0.0203" y1="0.0259" y2="0.2848" /><line stroke="rgb(10%,10%,16%)" x1="-0.0577" x2="-0.6351" y1="-0.0762" y2="-0.8386" /><line stroke="rgb(10%,10%,16%)" x1="-0.0176" x2="-0.1931" y1="-0.0963" y2="-1.0598" /><line stroke="rgb(10%,10%,16%)" x1="0.0257" x2="0.2824" y1="0.0831" y2="0.9145" /><line stroke="rgb(10%,10%,16%)" x1="0.0847" x2="0.9322" y1="-0.0422" y2="-0.4647" /><line stroke="rgb(10%,10%,16%)" x1="-0.0357" x2="-0.3927" y1="0.0623" y2="0.6848" /><line stroke="rgb(10%,10%,16%)" x1="0.0533" x2="0.5862" y1="0.0836" y2="0.9201" /><line stroke="rgb(10%,10%,16%)" x1="0.0116" x2="0.1273" y1="-0.087" y2="-0.9573" /><line stroke="rgb(10%,10%,16%)" x1="-0.0634" x2="-0.6976" y1="0.0768" y2="0.8451" /><line stroke="rgb(10%,10%,16%)" x1="-0.0563" x2="-0.6192" y1="-0.0002" y2="-0.0026" /><line stroke="rgb(10%,10%,16%)" x1="0.0662" x2="0.7278" y1="-0.005" y2="-0.0549" /><line stroke="rgb(10%,10%,16%)" x1="0.059" x2="0.6492" y1="-0.0565" y2="-0.621" /><line stroke="rgb(10%,10%,16%)" x1="0.0734" x2="0.8074" y1="0.0616" y2="0.6775" /><line stroke="rgb(10%,10%,16%)" x1="0.0485" x2="0.5331" y1="0.0075" y2="0.0825" /><line stroke="rgb(10%,10%,16%)" x1="-0.0501" x2="-0.5509" y1="-0.0626" y2="-0.6887" /><line stroke="rgb(10%,10%,16%)" x1="0.0503" x2="0.5532" y1="-0.0846" y2="-0.9305" /><line stroke="rgb(10%,10%,16%)" x1="0.0338" x2="0.3722" y1="-0.0034" y2="-0.0373" /><line stroke="rgb(10%,10%,16%)" x1="0.0697" x2="0.767" y1="-0.0621" y2="-0.6834" /><line stroke="rgb(10%,10%,16%)" x1="0.0946" x2="1.0407" y1="0.0295" y2="0.3242" /><line stroke="rgb(10%,10%,16%)" x1="-0.0687" x2="-0.7561" y1="0.0498" y2="0.5481" /><line stroke="rgb(10%,10%,16%)" x1="0.0671" x2="0.7381" y1="-0.0367" y2="-0.4041" /><line stroke="rgb(10%,10%,16%)" x1="0.0998" x2="1.0981" y1="-0.0016" y2="-0.0178" /><line stroke="rgb(10%,10%,16%)" x1="0.0346" x2="0.3806" y1="-0.081" y2="-0.8912" /><line stroke="rgb(10%,10%,16%)" x1="-0.0329" x2="-0.3615" y1="-0.081" y2="-0.8915" /><line stroke="rgb(10%,10%,16%)" x1="-0.0105" x2="-0.1155" y1="0.0832" y2="0.9156" /><line stroke="rgb(10%,10%,16%)" x1="0.0294" x2="0.3234" y1="0.0389" y2="0.4275" /><line stroke="rgb(10%,10%,16%)" x1="-0.0887" x2="-0.9761" y1="0.0251" y2="0.2756" /><line stroke="rgb(10%,10%,16%)" x1="-0.0742" x2="-0.8167" y1="0.0065" y2="0.0715" /><line stroke="rgb(10%,10%,16%)" x1="0.037" x2="0.4074" y1="0.0696" y2="0.7652" /><line stroke="rgb(10%,10%,16%)" x1="-0.0123" x2="-0.1349" y1="0.045" y2="0.4954" /><line stroke="rgb(10%,10%,16%)" x1="0.0729" x2="0.8018" y1="-0.0262" y2="-0.2887" /><line stroke="rgb(10%,10%,16%)" x1="-0.0425" x2="-0.4673" y1="0.0672" y2="0.739" /><line stroke="rgb(10%,10%,16%)" x1="0.0049" x2="0.0541" y1="-0.0302" y2="-0.3324" /><line stroke="rgb(10%,10%,16%)" x1="0.0181" x2="0.1989" y1="0.0301" y2="0.3311" /><line stroke="rgb(10%,10%,16%)" x1="-0.0425" x2="-0.4674" y1="0.0125" y2="0.1377" /><line stroke="rgb(10%,10%,16%)" x1="-0.086" x2="-0.9465" y1="0.0506" y2="0.5571" /><line stroke="rgb(10%,10%,16%)" x1="0.0194" x2="0.2129" y1="-0.0637" y2="-0.7007" /><line stroke="rgb(10%,10%,16%)" x1="-0.0926" x2="-1.0182" y1="-0.0103" y2="-0.1129" /><line stroke="rgb(10%,10%,16%)" x1="0.0943" x2="1.0371" y1="-0.0333" y2="-0.3663" /><line stroke="rgb(10%,10%,16%)" x1="0.0014" x2="0.0152" y1="-0.0878" y2="-0.9658" /><line stroke="rgb(10%,10%,16%)" x1="0.077" x2="0.8469" y1="0.0311" y2="0.3418" /><line stroke="rgb(10%,10%,16%)" x1="0.0534" x2="0.5872" y1="0.0611" y2="0.6723" /><line stroke="rgb(10%,10%,16%)" x1="0.0521" x2="0.5733" y1="0.0286" y2="0.3145" /><line stroke="rgb(10%,10%,16%)" x1="-0.0141" x2="-0.1548" y1="-0.0975" y2="-1.072" /><line stroke="rgb(10%,10%,16%)" x1="-0.0808" x2="-0.8884" y1="-0.0201" y2="-0.2206" /><line stroke="rgb(10%,10%,16%)" x1="0.0794" x2="0.8738" y1="0.0605" y2="0.6652" /><line stroke="rgb(10%,10%,16%)" x1="-0.0759" x2="-0.8354" y1="-0.065" y2="-0.7155" /><line stroke="rgb(10%,10%,16%)" x1="-0.0447" x2="-0.4918" y1="-0.0259" y2="-0.2854" /><line stroke="rgb(10%,10%,16%)" x1="0.0063" x2="0.069" y1="0.0634" y2="0.6977" /><line stroke="rgb(10%,10%,16%)" x1="-0.072" x2="-0.7925" y1="-0.0278" y2="-0.3055" /></svg>