{
    "asset" : {
        "generator" : "Khronos glTF Blender I/O v1.1.46",
        "version" : "2.0"
    },
    "scene" : 0,
    "scenes" : [
        {
            "name" : "Scene",
            "nodes" : [
                1,
                2,
                4,
                6,
                8,
                10,
                12
            ]
        }
    ],
    "nodes" : [
        {
            "camera" : 0,
            "name" : "outer-camera_Orientation",
            "rotation" : [
                -0.7071067690849304,
                0,
                0,
                0.7071067690849304
            ]
        },
        {
            "children" : [
                0
            ],
            "name" : "outer-camera",
            "rotation" : [
                0.483536034822464,
                0.33687159419059753,
                -0.20870360732078552,
                0.7804827094078064
            ],
            "translation" : [
                29.20749282836914,
                23.506519317626953,
                26.86016845703125
            ]
        },
        {
            "mesh" : 0,
            "name" : "Cylinder"
        },
        {
            "camera" : 1,
            "name" : "Camera.001_Orientation",
            "rotation" : [
                -0.7071067690849304,
                0,
                0,
                0.7071067690849304
            ]
        },
        {
            "children" : [
                3
            ],
            "name" : "Camera.001",
            "rotation" : [
                0.7071067690849304,
                0,
                0,
                0.7071067690849304
            ],
            "scale" : [
                0.020907899364829063,
                0.020907899364829063,
                0.020907899364829063
            ],
            "translation" : [
                0,
                1.9828780889511108,
                0
            ]
        },
        {
            "camera" : 2,
            "name" : "Camera.002_Orientation",
            "rotation" : [
                -0.7071067690849304,
                0,
                0,
                0.7071067690849304
            ]
        },
        {
            "children" : [
                5
            ],
            "name" : "Camera.002",
            "rotation" : [
                0.7071067690849304,
                0,
                0,
                0.7071067690849304
            ],
            "scale" : [
                0.020907899364829063,
                0.020907899364829063,
                0.020907899364829063
            ],
            "translation" : [
                0,
                1.9828780889511108,
                0
            ]
        },
        {
            "camera" : 3,
            "name" : "Camera.003_Orientation",
            "rotation" : [
                -0.7071067690849304,
                0,
                0,
                0.7071067690849304
            ]
        },
        {
            "children" : [
                7
            ],
            "name" : "Camera.003",
            "rotation" : [
                0.7071067690849304,
                0,
                0,
                0.7071067690849304
            ],
            "scale" : [
                0.020907899364829063,
                0.020907899364829063,
                0.020907899364829063
            ],
            "translation" : [
                0,
                1.9828780889511108,
                0
            ]
        },
        {
            "camera" : 4,
            "name" : "Camera.004_Orientation",
            "rotation" : [
                -0.7071067690849304,
                0,
                0,
                0.7071067690849304
            ]
        },
        {
            "children" : [
                9
            ],
            "name" : "Camera.004",
            "rotation" : [
                0.7071067690849304,
                0,
                0,
                0.7071067690849304
            ],
            "scale" : [
                0.020907899364829063,
                0.020907899364829063,
                0.020907899364829063
            ],
            "translation" : [
                0,
                1.9828780889511108,
                0
            ]
        },
        {
            "camera" : 5,
            "name" : "Camera.005_Orientation",
            "rotation" : [
                -0.7071067690849304,
                0,
                0,
                0.7071067690849304
            ]
        },
        {
            "children" : [
                11
            ],
            "name" : "Camera.005",
            "rotation" : [
                0.7071067690849304,
                0,
                0,
                0.7071067690849304
            ],
            "scale" : [
                0.020907899364829063,
                0.020907899364829063,
                0.020907899364829063
            ],
            "translation" : [
                0,
                1.9828780889511108,
                0
            ]
        }
    ],
    "cameras" : [
        {
            "name" : "outer-camera",
            "perspective" : {
                "yfov" : 0.6911112070083618,
                "zfar" : 100,
                "znear" : 0.10000000149011612
            },
            "type" : "perspective"
        },
        {
            "extras" : {
                "panoramic" : "true"
            },
            "name" : "central-pano-cam",
            "perspective" : {
                "yfov" : 0.6911112070083618,
                "zfar" : 1000,
                "znear" : 0.10000000149011612
            },
            "type" : "perspective"
        },
        {
            "extras" : {
                "compound-eye" : "true",
                "compound-projection" : "spherical_orientationwise",
                "compound-structure" : "/home/blayze/Documents/PhD-Work/eye-renderer/data/eyes/test1000-horizontallyAcute-10degrees-avgRadius-5.0.eye"
            },
            "name" : "(5.0r) 10 degrees Acute",
            "perspective" : {
                "yfov" : 0.6911112070083618,
                "zfar" : 1000,
                "znear" : 0.10000000149011612
            },
            "type" : "perspective"
        },
        {
            "extras" : {
                "compound-eye" : "true",
                "compound-projection" : "spherical_orientationwise",
                "compound-structure" : "/home/blayze/Documents/PhD-Work/eye-renderer/data/eyes/test1000-horizontallyAcute-15degrees-avgRadius-5.0.eye"
            },
            "name" : "(5.0r) 15 degrees Acute",
            "perspective" : {
                "yfov" : 0.6911112070083618,
                "zfar" : 1000,
                "znear" : 0.10000000149011612
            },
            "type" : "perspective"
        },
        {
            "extras" : {
                "compound-eye" : "true",
                "compound-projection" : "spherical_orientationwise",
                "compound-structure" : "/home/blayze/Documents/PhD-Work/eye-renderer/data/eyes/test1000-horizontallyAcute-20degrees-avgRadius-5.0.eye"
            },
            "name" : "(5.0r) 20 degrees Acute",
            "perspective" : {
                "yfov" : 0.6911112070083618,
                "zfar" : 1000,
                "znear" : 0.10000000149011612
            },
            "type" : "perspective"
        },
        {
            "extras" : {
                "compound-eye" : "true",
                "compound-projection" : "spherical_orientationwise",
                "compound-structure" : "/home/blayze/Documents/PhD-Work/eye-renderer/data/eyes/test1000-horizontallyAcute-25degrees-avgRadius-5.0.eye"
            },
            "name" : "(5.0r) 25 degrees Acute",
            "perspective" : {
                "yfov" : 0.6911112070083618,
                "zfar" : 1000,
                "znear" : 0.10000000149011612
            },
            "type" : "perspective"
        }
    ],
    "materials" : [
        {
            "doubleSided" : true,
            "emissiveFactor" : [
                0,
                0,
                0
            ],
            "name" : "Material.001",
            "pbrMetallicRoughness" : {
                "baseColorTexture" : {
                    "index" : 0,
                    "texCoord" : 0
                },
                "metallicFactor" : 0,
                "roughnessFactor" : 0.5
            }
        }
    ],
    "meshes" : [
        {
            "name" : "Cylinder.005",
            "primitives" : [
                {
                    "attributes" : {
                        "POSITION" : 0,
                        "NORMAL" : 1,
                        "TEXCOORD_0" : 2
                    },
                    "indices" : 3,
                    "material" : 0
                }
            ]
        }
    ],
    "textures" : [
        {
            "source" : 0
        }
    ],
    "images" : [
        {
            "mimeType" : "image/jpeg",
            "name" : "ofstad_patterning",
            "uri" : "ofstad_patterning.jpg"
        }
    ],
    "accessors" : [
        {
            "bufferView" : 0,
            "componentType" : 5126,
            "count" : 1536,
            "max" : [
                12.223000526428223,
                9.600000381469727,
                12.223000526428223
            ],
            "min" : [
                -12.223000526428223,
                0,
                -12.223000526428223
            ],
            "type" : "VEC3"
        },
        {
            "bufferView" : 1,
            "componentType" : 5126,
            "count" : 1536,
            "type" : "VEC3"
        },
        {
            "bufferView" : 2,
            "componentType" : 5126,
            "count" : 1536,
            "type" : "VEC2"
        },
        {
            "bufferView" : 3,
            "componentType" : 5123,
            "count" : 3060,
            "type" : "SCALAR"
        }
    ],
    "bufferViews" : [
        {
            "buffer" : 0,
            "byteLength" : 18432,
            "byteOffset" : 0
        },
        {
            "buffer" : 0,
            "byteLength" : 18432,
            "byteOffset" : 18432
        },
        {
            "buffer" : 0,
            "byteLength" : 12288,
            "byteOffset" : 36864
        },
        {
            "buffer" : 0,
            "byteLength" : 6120,
            "byteOffset" : 49152
        }
    ],
    "buffers" : [
        {
            "byteLength" : 55272,
            "uri" : "ofstad-arena.bin"
        }
    ]
}
