{
    "asset" : {
        "generator" : "Khronos glTF Blender I/O v1.1.46",
        "version" : "2.0"
    },
    "scene" : 0,
    "scenes" : [
        {
            "name" : "Scene",
            "nodes" : [
                1,
                3,
                5,
                7,
                9,
                10
            ]
        }
    ],
    "nodes" : [
        {
            "camera" : 0,
            "name" : "Camera_Orientation",
            "rotation" : [
                -0.7071067690849304,
                0,
                0,
                0.7071067690849304
            ]
        },
        {
            "children" : [
                0
            ],
            "name" : "Camera",
            "rotation" : [
                0.483536034822464,
                0.33687159419059753,
                -0.20870360732078552,
                0.7804827094078064
            ],
            "translation" : [
                7.358891487121582,
                4.958309173583984,
                6.925790786743164
            ]
        },
        {
            "camera" : 1,
            "name" : "far-camera_Orientation",
            "rotation" : [
                -0.7071067690849304,
                0,
                0,
                0.7071067690849304
            ]
        },
        {
            "children" : [
                2
            ],
            "name" : "far-camera",
            "rotation" : [
                0.6133658289909363,
                0.006447779946029186,
                -0.009643113240599632,
                0.7897137403488159
            ],
            "translation" : [
                -0.9134118556976318,
                5.628357410430908,
                20.798646926879883
            ]
        },
        {
            "camera" : 2,
            "name" : "insect-cam-1_Orientation",
            "rotation" : [
                -0.7071067690849304,
                0,
                0,
                0.7071067690849304
            ]
        },
        {
            "children" : [
                4
            ],
            "name" : "insect-cam-1",
            "rotation" : [
                0.7071067690849304,
                0,
                0,
                0.7071067690849304
            ],
            "translation" : [
                -0.10106289386749268,
                0.1287219524383545,
                4.2322516441345215
            ]
        },
        {
            "camera" : 3,
            "name" : "ortho-camera_Orientation",
            "rotation" : [
                -0.7071067690849304,
                0,
                0,
                0.7071067690849304
            ]
        },
        {
            "children" : [
                6
            ],
            "name" : "ortho-camera",
            "translation" : [
                -0.19851845502853394,
                14.879039764404297,
                2.9502203464508057
            ]
        },
        {
            "camera" : 4,
            "name" : "panoramic-camera_Orientation",
            "rotation" : [
                -0.7071067690849304,
                0,
                0,
                0.7071067690849304
            ]
        },
        {
            "children" : [
                8
            ],
            "name" : "panoramic-camera",
            "rotation" : [
                0.7071067690849304,
                0,
                0,
                0.7071067690849304
            ],
            "translation" : [
                -4.111989498138428,
                0.1287219524383545,
                4.680974960327148
            ]
        },
        {
            "mesh" : 0,
            "name" : "cow",
            "rotation" : [
                0.698127031326294,
                -0.11233295500278473,
                0.11233294755220413,
                0.6981269717216492
            ],
            "scale" : [
                24.523860931396484,
                24.523860931396484,
                24.523860931396484
            ],
            "translation" : [
                -3.6001102924346924,
                -0.9643535614013672,
                0
            ]
        }
    ],
    "cameras" : [
        {
            "name" : "Camera",
            "perspective" : {
                "yfov" : 0.39959652046304894,
                "zfar" : 100,
                "znear" : 0.10000000149011612
            },
            "type" : "perspective"
        },
        {
            "name" : "far-camera",
            "perspective" : {
                "yfov" : 0.39959652046304894,
                "zfar" : 100,
                "znear" : 0.10000000149011612
            },
            "type" : "perspective"
        },
        {
            "extras" : {
                "insect-eye" : "true"
            },
            "name" : "insect-cam-1",
            "perspective" : {
                "yfov" : 0.39959652046304894,
                "zfar" : 100,
                "znear" : 0.10000000149011612
            },
            "type" : "perspective"
        },
        {
            "name" : "ortho-camera",
            "orthographic" : {
                "xmag" : 16.014286041259766,
                "ymag" : 16.014286041259766,
                "zfar" : 100,
                "znear" : 0.10000000149011612
            },
            "type" : "orthographic"
        },
        {
            "extras" : {
                "panoramic" : "true"
            },
            "name" : "panoramic-camera",
            "perspective" : {
                "yfov" : 0.39959652046304894,
                "zfar" : 100,
                "znear" : 0.10000000149011612
            },
            "type" : "perspective"
        }
    ],
    "materials" : [
        {
            "doubleSided" : true,
            "emissiveFactor" : [
                0,
                0,
                0
            ],
            "name" : "Default OBJ",
            "pbrMetallicRoughness" : {
                "baseColorFactor" : [
                    0.800000011920929,
                    0.800000011920929,
                    0.800000011920929,
                    1
                ],
                "metallicFactor" : 0,
                "roughnessFactor" : 0.5
            }
        }
    ],
    "meshes" : [
        {
            "name" : "cow",
            "primitives" : [
                {
                    "attributes" : {
                        "POSITION" : 0,
                        "NORMAL" : 1
                    },
                    "indices" : 2,
                    "material" : 0
                }
            ]
        }
    ],
    "accessors" : [
        {
            "bufferView" : 0,
            "componentType" : 5126,
            "count" : 17412,
            "max" : [
                0.08081299811601639,
                0.025956999510526657,
                0.002271000063046813
            ],
            "min" : [
                -0.0807339996099472,
                -0.026525000110268593,
                -0.09533599764108658
            ],
            "type" : "VEC3"
        },
        {
            "bufferView" : 1,
            "componentType" : 5126,
            "count" : 17412,
            "type" : "VEC3"
        },
        {
            "bufferView" : 2,
            "componentType" : 5123,
            "count" : 17412,
            "type" : "SCALAR"
        }
    ],
    "bufferViews" : [
        {
            "buffer" : 0,
            "byteLength" : 208944,
            "byteOffset" : 0
        },
        {
            "buffer" : 0,
            "byteLength" : 208944,
            "byteOffset" : 208944
        },
        {
            "buffer" : 0,
            "byteLength" : 34824,
            "byteOffset" : 417888
        }
    ],
    "buffers" : [
        {
            "byteLength" : 452712,
            "uri" : "data:application/octet-stream;base64,"
        }
    ]
}
