{
    "asset" : {
        "generator" : "Khronos glTF Blender I/O v1.5.17",
        "version" : "2.0"
    },
    "scene" : 0,
    "scenes" : [
        {
            "extras" : {
                "glTF2ExportSettings" : {
                    "export_animations" : 0,
                    "export_cameras" : 1,
                    "export_extras" : 1,
                    "export_format" : "GLTF_EMBEDDED",
                    "export_morph" : 0,
                    "export_skins" : 0,
                    "use_selection" : 0
                },
		"background-shader":"simple_sky"
            },
            "name" : "Scene",
            "nodes" : [
                1,
                3,
                5,
                7,
                8
            ]
        }
    ],
    "nodes" : [
        {
            "camera" : 0,
            "name" : "regular-panoramic_Orientation",
            "rotation" : [
                -0.7071067690849304,
                0,
                0,
                0.7071067690849304
            ]
        },
        {
            "children" : [
                0
            ],
            "name" : "regular-panoramic",
            "rotation" : [
                0.7071068286895752,
                0,
                0,
                0.7071068286895752
            ]
        },
        {
            "camera" : 1,
            "name" : "insect-eye-spherical-projector_Orientation",
            "rotation" : [
                -0.7071067690849304,
                0,
                0,
                0.7071067690849304
            ]
        },
        {
            "children" : [
                2
            ],
            "name" : "insect-eye-spherical-projector",
            "rotation" : [
                0.7071068286895752,
                0,
                0,
                0.7071068286895752
            ]
        },
        {
            "camera" : 2,
            "name" : "insect-eye-spherical-projector-ids_Orientation",
            "rotation" : [
                -0.7071067690849304,
                0,
                0,
                0.7071067690849304
            ]
        },
        {
            "children" : [
                4
            ],
            "name" : "insect-eye-spherical-projector-ids",
            "rotation" : [
                0.7071068286895752,
                0,
                0,
                0.7071068286895752
            ]
        },
        {
            "camera" : 3,
            "name" : "insect-eye-fast-vector_Orientation",
            "rotation" : [
                -0.7071067690849304,
                0,
                0,
                0.7071067690849304
            ]
        },
        {
            "children" : [
                6
            ],
            "name" : "insect-eye-fast-vector",
            "rotation" : [
                0.7071068286895752,
                0,
                0,
                0.7071068286895752
            ]
        },
        {
            "extras" : {},
            "mesh" : 0,
            "name" : "Plane",
            "scale" : [
                496.10650634765625,
                496.10650634765625,
                496.10650634765625
            ],
            "translation" : [
                0,
                -14.353710174560547,
                0
            ]
        }
    ],
    "cameras" : [
        {
            "extras" : {
                "panoramic" : "true"
            },
            "name" : "regular-panoramic",
            "perspective" : {
                "aspectRatio" : 1.7777777777777777,
                "yfov" : 0.39959652046304894,
                "zfar" : 1000,
                "znear" : 0.10000000149011612
            },
            "type" : "perspective"
        },
        {
            "extras" : {
                "compound-eye" : "true",
                "compound-projection" : "spherical_orientationwise",
                "compound-structure" : "eyes/1000-horizontallyAcute-variableDegree.eye"
            },
            "name" : "insect-eye-spherical-projector",
            "perspective" : {
                "aspectRatio" : 1.7777777777777777,
                "yfov" : 0.39959652046304894,
                "zfar" : 1000,
                "znear" : 0.10000000149011612
            },
            "type" : "perspective"
        },
        {
            "extras" : {
                "compound-eye" : "true",
                "compound-structure" : "1000-horizontallyAcute-variableDegree.eye",
                "compound-projection" : "spherical_orientationwise_ids"
            },
            "name" : "insect-eye-spherical-projector-ids",
            "perspective" : {
                "aspectRatio" : 1.7777777777777777,
                "yfov" : 0.39959652046304894,
                "zfar" : 1000,
                "znear" : 0.10000000149011612
            },
            "type" : "perspective"
        },
        {
            "extras" : {
                "compound-eye" : "true",
                "compound-projection" : "single_dimension_fast",
                "compound-structure" : "1000-horizontallyAcute-variableDegree.eye"
            },
            "name" : "insect-eye-fast-vector",
            "perspective" : {
                "aspectRatio" : 1.7777777777777777,
                "yfov" : 0.39959652046304894,
                "zfar" : 1000,
                "znear" : 0.10000000149011612
            },
            "type" : "perspective"
        }
    ],
    "materials" : [
        {
            "doubleSided" : true,
            "name" : "Material",
            "pbrMetallicRoughness" : {
                "baseColorTexture" : {
                    "index" : 0
                },
                "metallicFactor" : 0,
                "roughnessFactor" : 0.5
            }
        }
    ],
    "meshes" : [
        {
            "extras" : {},
            "name" : "Plane",
            "primitives" : [
                {
                    "attributes" : {
                        "POSITION" : 0,
                        "NORMAL" : 1,
                        "TEXCOORD_0" : 2
                    },
                    "indices" : 3,
                    "material" : 0
                }
            ]
        }
    ],
    "textures" : [
        {
            "sampler" : 0,
            "source" : 0
        }
    ],
    "images" : [
        {
            "bufferView" : 4,
            "mimeType" : "image/png",
            "name" : "standin-ground"
        }
    ],
    "accessors" : [
        {
            "bufferView" : 0,
            "componentType" : 5126,
            "count" : 48400,
            "max" : [
                1.0103662014007568,
                0.11539829522371292,
                1.0051456689834595
            ],
            "min" : [
                -1.0001929998397827,
                -0.01425553672015667,
                -1.000455617904663
            ],
            "type" : "VEC3"
        },
        {
            "bufferView" : 1,
            "componentType" : 5126,
            "count" : 48400,
            "type" : "VEC3"
        },
        {
            "bufferView" : 2,
            "componentType" : 5126,
            "count" : 48400,
            "type" : "VEC2"
        },
        {
            "bufferView" : 3,
            "componentType" : 5123,
            "count" : 72600,
            "type" : "SCALAR"
        }
    ],
    "bufferViews" : [
        {
            "buffer" : 0,
            "byteLength" : 580800,
            "byteOffset" : 0
        },
        {
            "buffer" : 0,
            "byteLength" : 580800,
            "byteOffset" : 580800
        },
        {
            "buffer" : 0,
            "byteLength" : 387200,
            "byteOffset" : 1161600
        },
        {
            "buffer" : 0,
            "byteLength" : 145200,
            "byteOffset" : 1548800
        },
        {
            "buffer" : 0,
            "byteLength" : 870258,
            "byteOffset" : 1694000
        }
    ],
    "samplers" : [
        {
            "magFilter" : 9729,
            "minFilter" : 9987
        }
    ],
    "buffers" : [
        {
            "byteLength" : 2564260,
            "uri" : "data:application/octet-stream;base64,"
        }
    ]
}
